<svg width="32" height="32" viewBox="0 0 32 32" fill="none" xmlns="http://www.w3.org/2000/svg">
<path d="M0 16C0 24.8366 7.16344 32 16 32C24.8366 32 32 24.8366 32 16C32 7.16344 24.8366 0 16 0C7.16344 0 0 7.16344 0 16Z" fill="black"/>
<path d="M16.1619 10.4615C16.767 10.4615 17.5255 10.0399 17.9772 9.47764C18.3863 8.96813 18.6846 8.25658 18.6846 7.54503C18.6846 7.4484 18.6761 7.35177 18.659 7.27271C17.9858 7.29906 17.1761 7.73829 16.6903 8.32686C16.3068 8.77487 15.9573 9.47764 15.9573 10.198C15.9573 10.3034 15.9744 10.4088 15.9829 10.4439C16.0255 10.4527 16.0937 10.4615 16.1619 10.4615ZM14.0312 21.0909C14.8579 21.0909 15.2244 20.5199 16.2556 20.5199C17.3039 20.5199 17.534 21.0733 18.4545 21.0733C19.3579 21.0733 19.963 20.2124 20.534 19.3691C21.1733 18.4028 21.4375 17.4541 21.4545 17.4101C21.3948 17.3926 19.6647 16.6634 19.6647 14.6166C19.6647 12.8421 21.0284 12.0427 21.1051 11.9813C20.2017 10.646 18.8295 10.6109 18.4545 10.6109C17.4403 10.6109 16.6136 11.2433 16.0937 11.2433C15.5312 11.2433 14.7897 10.646 13.9119 10.646C12.2414 10.646 10.5454 12.0691 10.5454 14.7572C10.5454 16.4263 11.1761 18.192 11.9517 19.334C12.6164 20.3003 13.196 21.0909 14.0312 21.0909Z" fill="white"/>
</svg>
