<svg width="16" height="16" viewBox="0 0 16 16" fill="none" xmlns="http://www.w3.org/2000/svg">
<path fill-rule="evenodd" clip-rule="evenodd" d="M5.17614 13.3623V4.40097L6.83881 6.06363C6.97832 6.19114 7.16164 6.25992 7.3506 6.25564C7.53955 6.25137 7.71957 6.17437 7.85317 6.04068C7.98678 5.90699 8.06366 5.72692 8.06781 5.53796C8.07197 5.34901 8.00307 5.16573 7.87548 5.0263L4.96081 2.1123C4.89303 2.04361 4.81227 1.98906 4.72323 1.95183C4.6342 1.91461 4.53865 1.89544 4.44214 1.89544C4.34564 1.89544 4.25009 1.91461 4.16105 1.95183C4.07202 1.98906 3.99126 2.04361 3.92348 2.1123L1.01014 5.0263C0.940553 5.09404 0.88511 5.17492 0.847033 5.26426C0.808956 5.3536 0.789003 5.44962 0.788332 5.54673C0.787662 5.64384 0.806287 5.74012 0.843127 5.82998C0.879967 5.91983 0.934288 6.00148 1.00294 6.07017C1.07159 6.13886 1.15319 6.19324 1.24303 6.23013C1.33286 6.26703 1.42913 6.28572 1.52624 6.28511C1.62335 6.2845 1.71938 6.26461 1.80874 6.22659C1.89811 6.18857 1.97903 6.13318 2.04681 6.06363L3.70948 4.40097V13.3623C3.70948 13.5568 3.78674 13.7433 3.92427 13.8808C4.06179 14.0184 4.24832 14.0956 4.44281 14.0956C4.6373 14.0956 4.82383 14.0184 4.96136 13.8808C5.09888 13.7433 5.17614 13.5568 5.17614 13.3623ZM10.8315 2.6303V11.5916L9.16881 9.92963C9.03064 9.79514 8.84506 9.72048 8.65224 9.72181C8.45943 9.72314 8.27489 9.80036 8.13859 9.93675C8.00229 10.0731 7.92519 10.2577 7.92399 10.4505C7.92278 10.6433 7.99756 10.8289 8.13214 10.967L11.0461 13.8816C11.1141 13.9501 11.1949 14.0044 11.2839 14.0415C11.3729 14.0786 11.4684 14.0977 11.5648 14.0977C11.6612 14.0977 11.7567 14.0786 11.8457 14.0415C11.9348 14.0044 12.0156 13.9501 12.0835 13.8816L14.9981 10.967C15.0663 10.8989 15.1203 10.818 15.1571 10.729C15.194 10.64 15.213 10.5446 15.213 10.4483C15.213 10.352 15.194 10.2566 15.1571 10.1676C15.1203 10.0786 15.0663 9.99775 14.9981 9.92963C14.93 9.86152 14.8492 9.80749 14.7602 9.77063C14.6712 9.73377 14.5758 9.7148 14.4795 9.7148C14.3832 9.7148 14.2878 9.73377 14.1988 9.77063C14.1098 9.80749 14.0289 9.86152 13.9608 9.92963L12.2981 11.5923V2.63097C12.2981 2.43648 12.2209 2.24995 12.0834 2.11242C11.9458 1.9749 11.7593 1.89763 11.5648 1.89763C11.3703 1.89763 11.1838 1.9749 11.0463 2.11242C10.9087 2.24995 10.8315 2.43648 10.8315 2.63097" fill="#938F96"/>
</svg>
