<svg width="32" height="32" viewBox="0 0 32 32" fill="none" xmlns="http://www.w3.org/2000/svg">
<circle cx="16" cy="16" r="16" fill="#FEE500"/>
<path d="M16.4333 10C12.6042 10 9.5 12.4867 9.5 15.5538C9.5 17.5367 10.7977 19.2767 12.7497 20.2593C12.6437 20.6313 12.0674 22.6531 12.0445 22.8119C12.0445 22.8119 12.0307 22.9312 12.1068 22.9767C12.1828 23.0222 12.2721 22.987 12.2721 22.987C12.4904 22.9561 14.8018 21.3065 15.2018 21.0202C15.6016 21.0777 16.013 21.1075 16.4333 21.1075C20.2625 21.1075 23.3667 18.6212 23.3667 15.5538C23.3667 12.4867 20.2625 10 16.4333 10Z" fill="black"/>
</svg>
