<svg width="24" height="24" viewBox="0 0 24 24" fill="none" xmlns="http://www.w3.org/2000/svg">
<circle cx="3.40426" cy="3.40426" r="3.40426" transform="matrix(-1 0 0 1 15.617 5)" stroke="#9CA3AF" stroke-width="1.5"/>
<path d="M6.25531 16.8604C6.25531 16.1282 6.71561 15.475 7.40517 15.2287V15.2287C10.5141 14.1184 13.9114 14.1184 17.0203 15.2287V15.2287C17.7099 15.475 18.1702 16.1282 18.1702 16.8604V17.98C18.1702 18.9905 17.2751 19.7668 16.2747 19.6239L15.9412 19.5763C13.4681 19.223 10.9574 19.223 8.48436 19.5763L8.15081 19.6239C7.15038 19.7668 6.25531 18.9905 6.25531 17.98V16.8604Z" stroke="#9CA3AF" stroke-width="1.5"/>
<path d="M17.3192 11.9042C18.7964 11.9042 19.9939 10.7067 19.9939 9.22946C19.9939 7.75222 18.7964 6.55469 17.3192 6.55469" stroke="#9CA3AF" stroke-width="1.5" stroke-linecap="round"/>
<path d="M20.2486 18.0075L20.5107 18.0449C21.2967 18.1572 22 17.5473 22 16.7533V15.8736C22 15.2983 21.6383 14.7851 21.0965 14.5916C20.5561 14.3985 20.0045 14.2482 19.4468 14.1406" stroke="#9CA3AF" stroke-width="1.5" stroke-linecap="round"/>
<path d="M6.68085 11.9042C5.20361 11.9042 4.00607 10.7067 4.00607 9.22946C4.00607 7.75222 5.20361 6.55469 6.68085 6.55469" stroke="#9CA3AF" stroke-width="1.5" stroke-linecap="round"/>
<path d="M3.7514 18.0075L3.48932 18.0449C2.70327 18.1572 2 17.5473 2 16.7533V15.8736C2 15.2983 2.36167 14.7851 2.90347 14.5916C3.44392 14.3985 3.99546 14.2482 4.55319 14.1406" stroke="#9CA3AF" stroke-width="1.5" stroke-linecap="round"/>
</svg>